STARTFONT 2.1
FONT -sni-97480i2-Medium-OT-Normal--13-130-75-75-C-60-iso8859-2
SIZE 13 75 75
FONTBOUNDINGBOX 6 13 0 -3

STARTPROPERTIES 23
FONTNAME_REGISTRY ""
FAMILY_NAME "97480i2"
FOUNDRY "sni"
WEIGHT_NAME "Medium"
SLANT "OT"
SETWIDTH_NAME "Normal"
ADD_STYLE_NAME ""
PIXEL_SIZE 13
POINT_SIZE 130
RESOLUTION_X 75
RESOLUTION_Y 75
SPACING "C"
AVERAGE_WIDTH 60
CHARSET_REGISTRY "iso8859"
CHARSET_ENCODING "2"
FACE_NAME "97801-480 ISO 8859-2"
X_HEIGHT 5
COPYRIGHT "Copyright (C) Siemens Nixdorf Informationssysteme AG 1992, All Rights Reserved"
WEIGHT 10
QUAD_WIDTH 6
DEFAULT_CHAR 0
FONT_DESCENT 3
FONT_ASCENT 10
ENDPROPERTIES

CHARS 256

STARTCHAR C546=0x222
ENCODING 0
SWIDTH 461 0
DWIDTH 6 0
BBX 6 13 0 -3
BITMAP
00
00
70
88
A8
70
00
70
88
A8
70
00
00
ENDCHAR

STARTCHAR C001=0x001
ENCODING 1
SWIDTH 461 0
DWIDTH 6 0
BBX 6 13 0 -3
BITMAP
00
00
00
00
F8
80
40
00
70
88
88
70
00
ENDCHAR

STARTCHAR C002=0x002
ENCODING 2
SWIDTH 461 0
DWIDTH 6 0
BBX 6 13 0 -3
BITMAP
00
00
00
68
98
98
48
00
70
88
88
70
00
ENDCHAR

STARTCHAR C003=0x003
ENCODING 3
SWIDTH 461 0
DWIDTH 6 0
BBX 6 13 0 -3
BITMAP
00
00
00
70
A8
A8
88
00
70
88
88
70
00
ENDCHAR

STARTCHAR C004=0x004
ENCODING 4
SWIDTH 461 0
DWIDTH 6 0
BBX 6 13 0 -3
BITMAP
00
00
00
10
B8
50
30
00
70
88
88
70
00
ENDCHAR

STARTCHAR C005=0x005
ENCODING 5
SWIDTH 461 0
DWIDTH 6 0
BBX 6 13 0 -3
BITMAP
00
00
00
90
A8
A8
E8
00
70
88
88
70
00
ENDCHAR

STARTCHAR C006=0x006
ENCODING 6
SWIDTH 461 0
DWIDTH 6 0
BBX 6 13 0 -3
BITMAP
00
00
00
90
A8
A8
70
00
70
88
88
70
00
ENDCHAR

STARTCHAR C007=0x007
ENCODING 7
SWIDTH 461 0
DWIDTH 6 0
BBX 6 13 0 -3
BITMAP
00
00
00
C0
A0
90
88
00
70
88
88
70
00
ENDCHAR

STARTCHAR C008=0x008
ENCODING 8
SWIDTH 461 0
DWIDTH 6 0
BBX 6 13 0 -3
BITMAP
00
00
00
70
A8
A8
70
00
70
88
88
70
00
ENDCHAR

STARTCHAR C009=0x009
ENCODING 9
SWIDTH 461 0
DWIDTH 6 0
BBX 6 13 0 -3
BITMAP
00
00
00
70
A8
A8
68
00
70
88
88
70
00
ENDCHAR

STARTCHAR C010=0x00a
ENCODING 10
SWIDTH 461 0
DWIDTH 6 0
BBX 6 13 0 -3
BITMAP
00
00
00
78
A0
A0
78
00
70
88
88
70
00
ENDCHAR

STARTCHAR C011=0x00b
ENCODING 11
SWIDTH 461 0
DWIDTH 6 0
BBX 6 13 0 -3
BITMAP
00
00
00
50
A8
A8
F8
00
70
88
88
70
00
ENDCHAR

STARTCHAR C012=0x00c
ENCODING 12
SWIDTH 461 0
DWIDTH 6 0
BBX 6 13 0 -3
BITMAP
00
00
00
88
88
88
70
00
70
88
88
70
00
ENDCHAR

STARTCHAR C013=0x00d
ENCODING 13
SWIDTH 461 0
DWIDTH 6 0
BBX 6 13 0 -3
BITMAP
00
00
00
70
88
88
F8
00
70
88
88
70
00
ENDCHAR

STARTCHAR C014=0x00e
ENCODING 14
SWIDTH 461 0
DWIDTH 6 0
BBX 6 13 0 -3
BITMAP
00
00
00
88
A8
A8
F8
00
70
88
88
70
00
ENDCHAR

STARTCHAR C015=0x00f
ENCODING 15
SWIDTH 461 0
DWIDTH 6 0
BBX 6 13 0 -3
BITMAP
00
00
00
80
A0
A0
F8
00
70
88
88
70
00
ENDCHAR

STARTCHAR C016=0x010
ENCODING 16
SWIDTH 461 0
DWIDTH 6 0
BBX 6 13 0 -3
BITMAP
00
00
00
70
88
88
70
00
F8
80
40
00
00
ENDCHAR

STARTCHAR C017=0x011
ENCODING 17
SWIDTH 461 0
DWIDTH 6 0
BBX 6 13 0 -3
BITMAP
00
00
00
00
F8
80
40
00
F8
80
40
00
00
ENDCHAR

STARTCHAR C018=0x012
ENCODING 18
SWIDTH 461 0
DWIDTH 6 0
BBX 6 13 0 -3
BITMAP
00
00
00
68
98
98
48
00
F8
80
40
00
00
ENDCHAR

STARTCHAR C019=0x013
ENCODING 19
SWIDTH 461 0
DWIDTH 6 0
BBX 6 13 0 -3
BITMAP
00
00
00
70
A8
A8
88
00
F8
80
40
00
00
ENDCHAR

STARTCHAR C020=0x014
ENCODING 20
SWIDTH 461 0
DWIDTH 6 0
BBX 6 13 0 -3
BITMAP
00
00
00
10
B8
50
30
00
F8
80
40
00
00
ENDCHAR

STARTCHAR C021=0x015
ENCODING 21
SWIDTH 461 0
DWIDTH 6 0
BBX 6 13 0 -3
BITMAP
00
00
00
90
A8
A8
E8
00
F8
80
40
00
00
ENDCHAR

STARTCHAR C022=0x016
ENCODING 22
SWIDTH 461 0
DWIDTH 6 0
BBX 6 13 0 -3
BITMAP
00
00
00
90
A8
A8
70
00
F8
80
40
00
00
ENDCHAR

STARTCHAR C023=0x017
ENCODING 23
SWIDTH 461 0
DWIDTH 6 0
BBX 6 13 0 -3
BITMAP
00
00
00
C0
A0
90
88
00
F8
80
40
00
00
ENDCHAR

STARTCHAR C024=0x018
ENCODING 24
SWIDTH 461 0
DWIDTH 6 0
BBX 6 13 0 -3
BITMAP
00
00
00
70
A8
A8
70
00
F8
80
40
00
00
ENDCHAR

STARTCHAR C025=0x019
ENCODING 25
SWIDTH 461 0
DWIDTH 6 0
BBX 6 13 0 -3
BITMAP
00
00
00
70
A8
A8
68
00
F8
80
40
00
00
ENDCHAR

STARTCHAR C026=0x01a
ENCODING 26
SWIDTH 461 0
DWIDTH 6 0
BBX 6 13 0 -3
BITMAP
00
00
00
78
A0
A0
78
00
F8
80
40
00
00
ENDCHAR

STARTCHAR C027=0x01b
ENCODING 27
SWIDTH 461 0
DWIDTH 6 0
BBX 6 13 0 -3
BITMAP
00
00
00
50
A8
A8
F8
00
F8
80
40
00
00
ENDCHAR

STARTCHAR C028=0x01c
ENCODING 28
SWIDTH 461 0
DWIDTH 6 0
BBX 6 13 0 -3
BITMAP
00
00
00
88
88
88
70
00
F8
80
40
00
00
ENDCHAR

STARTCHAR C029=0x01d
ENCODING 29
SWIDTH 461 0
DWIDTH 6 0
BBX 6 13 0 -3
BITMAP
00
00
00
70
88
88
F8
00
F8
80
40
00
00
ENDCHAR

STARTCHAR C030=0x01e
ENCODING 30
SWIDTH 461 0
DWIDTH 6 0
BBX 6 13 0 -3
BITMAP
00
00
00
88
A8
A8
F8
00
F8
80
40
00
00
ENDCHAR

STARTCHAR C031=0x01f
ENCODING 31
SWIDTH 461 0
DWIDTH 6 0
BBX 6 13 0 -3
BITMAP
00
00
00
80
A0
A0
F8
00
F8
80
40
00
00
ENDCHAR

STARTCHAR C032=0x020
ENCODING 32
SWIDTH 461 0
DWIDTH 6 0
BBX 6 13 0 -3
BITMAP
00
00
00
00
00
00
00
00
00
00
00
00
00
ENDCHAR

STARTCHAR C033=0x021
ENCODING 33
SWIDTH 461 0
DWIDTH 6 0
BBX 6 13 0 -3
BITMAP
00
00
20
20
20
20
20
20
20
00
20
00
00
ENDCHAR

STARTCHAR C034=0x022
ENCODING 34
SWIDTH 461 0
DWIDTH 6 0
BBX 6 13 0 -3
BITMAP
00
00
50
50
50
00
00
00
00
00
00
00
00
ENDCHAR

STARTCHAR C035=0x023
ENCODING 35
SWIDTH 461 0
DWIDTH 6 0
BBX 6 13 0 -3
BITMAP
00
00
00
50
50
F8
50
F8
50
50
00
00
00
ENDCHAR

STARTCHAR C237=0x0ed
ENCODING 36
SWIDTH 461 0
DWIDTH 6 0
BBX 6 13 0 -3
BITMAP
00
00
20
70
A8
A0
70
28
A8
70
20
00
00
ENDCHAR

STARTCHAR C037=0x025
ENCODING 37
SWIDTH 461 0
DWIDTH 6 0
BBX 6 13 0 -3
BITMAP
00
00
48
A8
50
10
20
40
50
A8
90
00
00
ENDCHAR

STARTCHAR C038=0x026
ENCODING 38
SWIDTH 461 0
DWIDTH 6 0
BBX 6 13 0 -3
BITMAP
00
00
40
A0
A0
40
A0
98
90
68
00
00
00
ENDCHAR

STARTCHAR C039=0x027
ENCODING 39
SWIDTH 461 0
DWIDTH 6 0
BBX 6 13 0 -3
BITMAP
00
00
30
20
40
00
00
00
00
00
00
00
00
ENDCHAR

STARTCHAR C040=0x028
ENCODING 40
SWIDTH 461 0
DWIDTH 6 0
BBX 6 13 0 -3
BITMAP
00
00
10
20
20
40
40
40
20
20
10
00
00
ENDCHAR

STARTCHAR C041=0x029
ENCODING 41
SWIDTH 461 0
DWIDTH 6 0
BBX 6 13 0 -3
BITMAP
00
00
40
20
20
10
10
10
20
20
40
00
00
ENDCHAR

STARTCHAR C042=0x02a
ENCODING 42
SWIDTH 461 0
DWIDTH 6 0
BBX 6 13 0 -3
BITMAP
00
00
00
20
A8
F8
70
F8
A8
20
00
00
00
ENDCHAR

STARTCHAR C043=0x02b
ENCODING 43
SWIDTH 461 0
DWIDTH 6 0
BBX 6 13 0 -3
BITMAP
00
00
00
00
20
20
F8
20
20
00
00
00
00
ENDCHAR

STARTCHAR C044=0x02c
ENCODING 44
SWIDTH 461 0
DWIDTH 6 0
BBX 6 13 0 -3
BITMAP
00
00
00
00
00
00
00
00
00
30
20
40
00
ENDCHAR

STARTCHAR C045=0x02d
ENCODING 45
SWIDTH 461 0
DWIDTH 6 0
BBX 6 13 0 -3
BITMAP
00
00
00
00
00
00
F8
00
00
00
00
00
00
ENDCHAR

STARTCHAR C046=0x02e
ENCODING 46
SWIDTH 461 0
DWIDTH 6 0
BBX 6 13 0 -3
BITMAP
00
00
00
00
00
00
00
00
00
20
70
20
00
ENDCHAR

STARTCHAR C047=0x02f
ENCODING 47
SWIDTH 461 0
DWIDTH 6 0
BBX 6 13 0 -3
BITMAP
00
00
08
08
10
10
20
40
40
80
80
00
00
ENDCHAR

STARTCHAR C048=0x030
ENCODING 48
SWIDTH 461 0
DWIDTH 6 0
BBX 6 13 0 -3
BITMAP
00
00
20
50
88
88
88
88
88
50
20
00
00
ENDCHAR

STARTCHAR C049=0x031
ENCODING 49
SWIDTH 461 0
DWIDTH 6 0
BBX 6 13 0 -3
BITMAP
00
00
20
60
A0
20
20
20
20
20
F8
00
00
ENDCHAR

STARTCHAR C050=0x032
ENCODING 50
SWIDTH 461 0
DWIDTH 6 0
BBX 6 13 0 -3
BITMAP
00
00
70
88
88
08
10
20
40
80
F8
00
00
ENDCHAR

STARTCHAR C051=0x033
ENCODING 51
SWIDTH 461 0
DWIDTH 6 0
BBX 6 13 0 -3
BITMAP
00
00
F8
08
10
20
70
08
08
88
70
00
00
ENDCHAR

STARTCHAR C052=0x034
ENCODING 52
SWIDTH 461 0
DWIDTH 6 0
BBX 6 13 0 -3
BITMAP
00
00
10
10
30
50
50
90
F8
10
10
00
00
ENDCHAR

STARTCHAR C053=0x035
ENCODING 53
SWIDTH 461 0
DWIDTH 6 0
BBX 6 13 0 -3
BITMAP
00
00
F8
80
80
B0
C8
08
08
88
70
00
00
ENDCHAR

STARTCHAR C054=0x036
ENCODING 54
SWIDTH 461 0
DWIDTH 6 0
BBX 6 13 0 -3
BITMAP
00
00
70
88
80
80
F0
88
88
88
70
00
00
ENDCHAR

STARTCHAR C055=0x037
ENCODING 55
SWIDTH 461 0
DWIDTH 6 0
BBX 6 13 0 -3
BITMAP
00
00
F8
08
10
10
20
20
40
40
40
00
00
ENDCHAR

STARTCHAR C056=0x038
ENCODING 56
SWIDTH 461 0
DWIDTH 6 0
BBX 6 13 0 -3
BITMAP
00
00
70
88
88
88
70
88
88
88
70
00
00
ENDCHAR

STARTCHAR C057=0x039
ENCODING 57
SWIDTH 461 0
DWIDTH 6 0
BBX 6 13 0 -3
BITMAP
00
00
70
88
88
88
78
08
08
88
70
00
00
ENDCHAR

STARTCHAR C058=0x03a
ENCODING 58
SWIDTH 461 0
DWIDTH 6 0
BBX 6 13 0 -3
BITMAP
00
00
00
00
20
70
20
00
00
20
70
20
00
ENDCHAR

STARTCHAR C059=0x03b
ENCODING 59
SWIDTH 461 0
DWIDTH 6 0
BBX 6 13 0 -3
BITMAP
00
00
00
00
20
70
20
00
00
30
20
40
00
ENDCHAR

STARTCHAR C060=0x03c
ENCODING 60
SWIDTH 461 0
DWIDTH 6 0
BBX 6 13 0 -3
BITMAP
00
00
08
10
20
40
80
40
20
10
08
00
00
ENDCHAR

STARTCHAR C061=0x03d
ENCODING 61
SWIDTH 461 0
DWIDTH 6 0
BBX 6 13 0 -3
BITMAP
00
00
00
00
00
F8
00
00
F8
00
00
00
00
ENDCHAR

STARTCHAR C062=0x03e
ENCODING 62
SWIDTH 461 0
DWIDTH 6 0
BBX 6 13 0 -3
BITMAP
00
00
80
40
20
10
08
10
20
40
80
00
00
ENDCHAR

STARTCHAR C063=0x03f
ENCODING 63
SWIDTH 461 0
DWIDTH 6 0
BBX 6 13 0 -3
BITMAP
00
00
70
88
88
08
10
20
20
00
20
00
00
ENDCHAR

STARTCHAR C064=0x040
ENCODING 64
SWIDTH 461 0
DWIDTH 6 0
BBX 6 13 0 -3
BITMAP
00
00
70
88
88
98
A8
A8
B0
80
78
00
00
ENDCHAR

STARTCHAR C065=0x041
ENCODING 65
SWIDTH 461 0
DWIDTH 6 0
BBX 6 13 0 -3
BITMAP
00
00
20
50
88
88
88
F8
88
88
88
00
00
ENDCHAR

STARTCHAR C066=0x042
ENCODING 66
SWIDTH 461 0
DWIDTH 6 0
BBX 6 13 0 -3
BITMAP
00
00
F0
48
48
48
70
48
48
48
F0
00
00
ENDCHAR

STARTCHAR C067=0x043
ENCODING 67
SWIDTH 461 0
DWIDTH 6 0
BBX 6 13 0 -3
BITMAP
00
00
70
88
80
80
80
80
80
88
70
00
00
ENDCHAR

STARTCHAR C068=0x044
ENCODING 68
SWIDTH 461 0
DWIDTH 6 0
BBX 6 13 0 -3
BITMAP
00
00
F0
48
48
48
48
48
48
48
F0
00
00
ENDCHAR

STARTCHAR C069=0x045
ENCODING 69
SWIDTH 461 0
DWIDTH 6 0
BBX 6 13 0 -3
BITMAP
00
00
F8
80
80
80
F0
80
80
80
F8
00
00
ENDCHAR

STARTCHAR C070=0x046
ENCODING 70
SWIDTH 461 0
DWIDTH 6 0
BBX 6 13 0 -3
BITMAP
00
00
F8
80
80
80
F0
80
80
80
80
00
00
ENDCHAR

STARTCHAR C071=0x047
ENCODING 71
SWIDTH 461 0
DWIDTH 6 0
BBX 6 13 0 -3
BITMAP
00
00
70
88
80
80
80
98
88
88
70
00
00
ENDCHAR

STARTCHAR C072=0x048
ENCODING 72
SWIDTH 461 0
DWIDTH 6 0
BBX 6 13 0 -3
BITMAP
00
00
88
88
88
88
F8
88
88
88
88
00
00
ENDCHAR

STARTCHAR C073=0x049
ENCODING 73
SWIDTH 461 0
DWIDTH 6 0
BBX 6 13 0 -3
BITMAP
00
00
70
20
20
20
20
20
20
20
70
00
00
ENDCHAR

STARTCHAR C074=0x04a
ENCODING 74
SWIDTH 461 0
DWIDTH 6 0
BBX 6 13 0 -3
BITMAP
00
00
38
10
10
10
10
10
10
90
60
00
00
ENDCHAR

STARTCHAR C075=0x04b
ENCODING 75
SWIDTH 461 0
DWIDTH 6 0
BBX 6 13 0 -3
BITMAP
00
00
88
88
90
A0
C0
A0
90
88
88
00
00
ENDCHAR

STARTCHAR C076=0x04c
ENCODING 76
SWIDTH 461 0
DWIDTH 6 0
BBX 6 13 0 -3
BITMAP
00
00
80
80
80
80
80
80
80
80
F8
00
00
ENDCHAR

STARTCHAR C077=0x04d
ENCODING 77
SWIDTH 461 0
DWIDTH 6 0
BBX 6 13 0 -3
BITMAP
00
00
88
88
D8
A8
A8
88
88
88
88
00
00
ENDCHAR

STARTCHAR C078=0x04e
ENCODING 78
SWIDTH 461 0
DWIDTH 6 0
BBX 6 13 0 -3
BITMAP
00
00
88
C8
C8
A8
A8
98
98
88
88
00
00
ENDCHAR

STARTCHAR C079=0x04f
ENCODING 79
SWIDTH 461 0
DWIDTH 6 0
BBX 6 13 0 -3
BITMAP
00
00
70
88
88
88
88
88
88
88
70
00
00
ENDCHAR

STARTCHAR C080=0x050
ENCODING 80
SWIDTH 461 0
DWIDTH 6 0
BBX 6 13 0 -3
BITMAP
00
00
F0
88
88
88
F0
80
80
80
80
00
00
ENDCHAR

STARTCHAR C081=0x051
ENCODING 81
SWIDTH 461 0
DWIDTH 6 0
BBX 6 13 0 -3
BITMAP
00
00
70
88
88
88
88
88
88
A8
70
08
00
ENDCHAR

STARTCHAR C082=0x052
ENCODING 82
SWIDTH 461 0
DWIDTH 6 0
BBX 6 13 0 -3
BITMAP
00
00
F0
88
88
88
F0
A0
90
88
88
00
00
ENDCHAR

STARTCHAR C083=0x053
ENCODING 83
SWIDTH 461 0
DWIDTH 6 0
BBX 6 13 0 -3
BITMAP
00
00
70
88
80
80
70
08
08
88
70
00
00
ENDCHAR

STARTCHAR C084=0x054
ENCODING 84
SWIDTH 461 0
DWIDTH 6 0
BBX 6 13 0 -3
BITMAP
00
00
F8
20
20
20
20
20
20
20
20
00
00
ENDCHAR

STARTCHAR C085=0x055
ENCODING 85
SWIDTH 461 0
DWIDTH 6 0
BBX 6 13 0 -3
BITMAP
00
00
88
88
88
88
88
88
88
88
70
00
00
ENDCHAR

STARTCHAR C086=0x056
ENCODING 86
SWIDTH 461 0
DWIDTH 6 0
BBX 6 13 0 -3
BITMAP
00
00
88
88
88
88
50
50
50
20
20
00
00
ENDCHAR

STARTCHAR C087=0x057
ENCODING 87
SWIDTH 461 0
DWIDTH 6 0
BBX 6 13 0 -3
BITMAP
00
00
88
88
88
88
A8
A8
A8
D8
88
00
00
ENDCHAR

STARTCHAR C088=0x058
ENCODING 88
SWIDTH 461 0
DWIDTH 6 0
BBX 6 13 0 -3
BITMAP
00
00
88
88
50
50
20
50
50
88
88
00
00
ENDCHAR

STARTCHAR C089=0x059
ENCODING 89
SWIDTH 461 0
DWIDTH 6 0
BBX 6 13 0 -3
BITMAP
00
00
88
88
50
50
20
20
20
20
20
00
00
ENDCHAR

STARTCHAR C090=0x05a
ENCODING 90
SWIDTH 461 0
DWIDTH 6 0
BBX 6 13 0 -3
BITMAP
00
00
F8
08
10
10
20
40
40
80
F8
00
00
ENDCHAR

STARTCHAR C091=0x05b
ENCODING 91
SWIDTH 461 0
DWIDTH 6 0
BBX 6 13 0 -3
BITMAP
00
00
70
40
40
40
40
40
40
40
70
00
00
ENDCHAR

STARTCHAR C092=0x05c
ENCODING 92
SWIDTH 461 0
DWIDTH 6 0
BBX 6 13 0 -3
BITMAP
00
00
80
80
40
40
20
10
10
08
08
00
00
ENDCHAR

STARTCHAR C093=0x05d
ENCODING 93
SWIDTH 461 0
DWIDTH 6 0
BBX 6 13 0 -3
BITMAP
00
00
70
10
10
10
10
10
10
10
70
00
00
ENDCHAR

STARTCHAR C094=0x05e
ENCODING 94
SWIDTH 461 0
DWIDTH 6 0
BBX 6 13 0 -3
BITMAP
00
00
20
50
88
00
00
00
00
00
00
00
00
ENDCHAR

STARTCHAR C095=0x05f
ENCODING 95
SWIDTH 461 0
DWIDTH 6 0
BBX 6 13 0 -3
BITMAP
00
00
00
00
00
00
00
00
00
00
F8
00
00
ENDCHAR

STARTCHAR C096=0x060
ENCODING 96
SWIDTH 461 0
DWIDTH 6 0
BBX 6 13 0 -3
BITMAP
00
00
30
10
08
00
00
00
00
00
00
00
00
ENDCHAR

STARTCHAR C097=0x061
ENCODING 97
SWIDTH 461 0
DWIDTH 6 0
BBX 6 13 0 -3
BITMAP
00
00
00
00
00
70
08
78
88
88
78
00
00
ENDCHAR

STARTCHAR C098=0x062
ENCODING 98
SWIDTH 461 0
DWIDTH 6 0
BBX 6 13 0 -3
BITMAP
00
00
80
80
80
F0
88
88
88
88
F0
00
00
ENDCHAR

STARTCHAR C099=0x063
ENCODING 99
SWIDTH 461 0
DWIDTH 6 0
BBX 6 13 0 -3
BITMAP
00
00
00
00
00
70
88
80
80
88
70
00
00
ENDCHAR

STARTCHAR C100=0x064
ENCODING 100
SWIDTH 461 0
DWIDTH 6 0
BBX 6 13 0 -3
BITMAP
00
00
08
08
08
78
88
88
88
88
78
00
00
ENDCHAR

STARTCHAR C101=0x065
ENCODING 101
SWIDTH 461 0
DWIDTH 6 0
BBX 6 13 0 -3
BITMAP
00
00
00
00
00
70
88
F8
80
88
70
00
00
ENDCHAR

STARTCHAR C102=0x066
ENCODING 102
SWIDTH 461 0
DWIDTH 6 0
BBX 6 13 0 -3
BITMAP
00
00
30
48
40
40
F0
40
40
40
40
00
00
ENDCHAR

STARTCHAR C103=0x067
ENCODING 103
SWIDTH 461 0
DWIDTH 6 0
BBX 6 13 0 -3
BITMAP
00
00
00
00
00
70
88
88
88
78
08
88
70
ENDCHAR

STARTCHAR C104=0x068
ENCODING 104
SWIDTH 461 0
DWIDTH 6 0
BBX 6 13 0 -3
BITMAP
00
00
80
80
80
B0
C8
88
88
88
88
00
00
ENDCHAR

STARTCHAR C105=0x069
ENCODING 105
SWIDTH 461 0
DWIDTH 6 0
BBX 6 13 0 -3
BITMAP
00
00
00
20
00
60
20
20
20
20
70
00
00
ENDCHAR

STARTCHAR C106=0x06a
ENCODING 106
SWIDTH 461 0
DWIDTH 6 0
BBX 6 13 0 -3
BITMAP
00
00
00
10
00
30
10
10
10
10
90
90
60
ENDCHAR

STARTCHAR C107=0x06b
ENCODING 107
SWIDTH 461 0
DWIDTH 6 0
BBX 6 13 0 -3
BITMAP
00
00
80
80
80
90
A0
C0
A0
90
88
00
00
ENDCHAR

STARTCHAR C108=0x06c
ENCODING 108
SWIDTH 461 0
DWIDTH 6 0
BBX 6 13 0 -3
BITMAP
00
00
60
20
20
20
20
20
20
20
70
00
00
ENDCHAR

STARTCHAR C109=0x06d
ENCODING 109
SWIDTH 461 0
DWIDTH 6 0
BBX 6 13 0 -3
BITMAP
00
00
00
00
00
D0
A8
A8
A8
A8
88
00
00
ENDCHAR

STARTCHAR C110=0x06e
ENCODING 110
SWIDTH 461 0
DWIDTH 6 0
BBX 6 13 0 -3
BITMAP
00
00
00
00
00
B0
C8
88
88
88
88
00
00
ENDCHAR

STARTCHAR C111=0x06f
ENCODING 111
SWIDTH 461 0
DWIDTH 6 0
BBX 6 13 0 -3
BITMAP
00
00
00
00
00
70
88
88
88
88
70
00
00
ENDCHAR

STARTCHAR C112=0x070
ENCODING 112
SWIDTH 461 0
DWIDTH 6 0
BBX 6 13 0 -3
BITMAP
00
00
00
00
00
F0
88
88
88
F0
80
80
80
ENDCHAR

STARTCHAR C113=0x071
ENCODING 113
SWIDTH 461 0
DWIDTH 6 0
BBX 6 13 0 -3
BITMAP
00
00
00
00
00
78
88
88
88
78
08
08
08
ENDCHAR

STARTCHAR C114=0x072
ENCODING 114
SWIDTH 461 0
DWIDTH 6 0
BBX 6 13 0 -3
BITMAP
00
00
00
00
00
B0
C8
80
80
80
80
00
00
ENDCHAR

STARTCHAR C115=0x073
ENCODING 115
SWIDTH 461 0
DWIDTH 6 0
BBX 6 13 0 -3
BITMAP
00
00
00
00
00
70
88
60
10
88
70
00
00
ENDCHAR

STARTCHAR C116=0x074
ENCODING 116
SWIDTH 461 0
DWIDTH 6 0
BBX 6 13 0 -3
BITMAP
00
00
00
40
40
F0
40
40
40
48
30
00
00
ENDCHAR

STARTCHAR C117=0x075
ENCODING 117
SWIDTH 461 0
DWIDTH 6 0
BBX 6 13 0 -3
BITMAP
00
00
00
00
00
88
88
88
88
98
68
00
00
ENDCHAR

STARTCHAR C118=0x076
ENCODING 118
SWIDTH 461 0
DWIDTH 6 0
BBX 6 13 0 -3
BITMAP
00
00
00
00
00
88
88
88
50
50
20
00
00
ENDCHAR

STARTCHAR C119=0x077
ENCODING 119
SWIDTH 461 0
DWIDTH 6 0
BBX 6 13 0 -3
BITMAP
00
00
00
00
00
88
88
A8
A8
A8
50
00
00
ENDCHAR

STARTCHAR C120=0x078
ENCODING 120
SWIDTH 461 0
DWIDTH 6 0
BBX 6 13 0 -3
BITMAP
00
00
00
00
00
88
50
20
20
50
88
00
00
ENDCHAR

STARTCHAR C121=0x079
ENCODING 121
SWIDTH 461 0
DWIDTH 6 0
BBX 6 13 0 -3
BITMAP
00
00
00
00
00
88
88
88
98
68
08
88
70
ENDCHAR

STARTCHAR C122=0x07a
ENCODING 122
SWIDTH 461 0
DWIDTH 6 0
BBX 6 13 0 -3
BITMAP
00
00
00
00
00
F8
10
20
40
80
F8
00
00
ENDCHAR

STARTCHAR C123=0x07b
ENCODING 123
SWIDTH 461 0
DWIDTH 6 0
BBX 6 13 0 -3
BITMAP
00
00
18
20
20
20
C0
20
20
20
18
00
00
ENDCHAR

STARTCHAR C124=0x07c
ENCODING 124
SWIDTH 461 0
DWIDTH 6 0
BBX 6 13 0 -3
BITMAP
00
00
20
20
20
20
20
20
20
20
20
00
00
ENDCHAR

STARTCHAR C125=0x07d
ENCODING 125
SWIDTH 461 0
DWIDTH 6 0
BBX 6 13 0 -3
BITMAP
00
00
C0
20
20
20
18
20
20
20
C0
00
00
ENDCHAR

STARTCHAR C253=0x0fd
ENCODING 126
SWIDTH 461 0
DWIDTH 6 0
BBX 6 13 0 -3
BITMAP
48
B0
00
00
00
00
00
00
00
00
00
00
00
ENDCHAR

STARTCHAR C127=0x07f
ENCODING 127
SWIDTH 461 0
DWIDTH 6 0
BBX 6 13 0 -3
BITMAP
00
00
00
00
A8
50
A8
50
A8
00
00
00
00
ENDCHAR

STARTCHAR C768=0x300
ENCODING 128
SWIDTH 461 0
DWIDTH 6 0
BBX 6 13 0 -3
BITMAP
20
20
20
20
20
20
20
20
20
20
20
20
20
ENDCHAR

STARTCHAR C769=0x301
ENCODING 129
SWIDTH 461 0
DWIDTH 6 0
BBX 6 13 0 -3
BITMAP
00
00
00
00
00
00
FC
00
00
00
00
00
00
ENDCHAR

STARTCHAR C770=0x302
ENCODING 130
SWIDTH 461 0
DWIDTH 6 0
BBX 6 13 0 -3
BITMAP
00
00
00
00
00
00
3C
20
20
20
20
20
20
ENDCHAR

STARTCHAR C771=0x303
ENCODING 131
SWIDTH 461 0
DWIDTH 6 0
BBX 6 13 0 -3
BITMAP
00
00
00
00
00
00
E0
20
20
20
20
20
20
ENDCHAR

STARTCHAR C772=0x304
ENCODING 132
SWIDTH 461 0
DWIDTH 6 0
BBX 6 13 0 -3
BITMAP
20
20
20
20
20
20
3C
00
00
00
00
00
00
ENDCHAR

STARTCHAR C773=0x305
ENCODING 133
SWIDTH 461 0
DWIDTH 6 0
BBX 6 13 0 -3
BITMAP
20
20
20
20
20
20
E0
00
00
00
00
00
00
ENDCHAR

STARTCHAR C774=0x306
ENCODING 134
SWIDTH 461 0
DWIDTH 6 0
BBX 6 13 0 -3
BITMAP
20
20
20
20
20
20
3C
20
20
20
20
20
20
ENDCHAR

STARTCHAR C775=0x307
ENCODING 135
SWIDTH 461 0
DWIDTH 6 0
BBX 6 13 0 -3
BITMAP
20
20
20
20
20
20
E0
20
20
20
20
20
20
ENDCHAR

STARTCHAR C776=0x308
ENCODING 136
SWIDTH 461 0
DWIDTH 6 0
BBX 6 13 0 -3
BITMAP
00
00
00
00
00
00
FC
20
20
20
20
20
20
ENDCHAR

STARTCHAR C777=0x309
ENCODING 137
SWIDTH 461 0
DWIDTH 6 0
BBX 6 13 0 -3
BITMAP
20
20
20
20
20
20
FC
00
00
00
00
00
00
ENDCHAR

STARTCHAR C778=0x30a
ENCODING 138
SWIDTH 461 0
DWIDTH 6 0
BBX 6 13 0 -3
BITMAP
20
20
20
20
20
20
FC
20
20
20
20
20
20
ENDCHAR

STARTCHAR C779=0x30b
ENCODING 139
SWIDTH 461 0
DWIDTH 6 0
BBX 6 13 0 -3
BITMAP
00
00
00
00
00
00
00
00
00
00
00
FC
00
ENDCHAR

STARTCHAR C780=0x30c
ENCODING 140
SWIDTH 461 0
DWIDTH 6 0
BBX 6 13 0 -3
BITMAP
00
00
00
88
88
88
70
00
50
A8
A8
50
00
ENDCHAR

STARTCHAR C781=0x30d
ENCODING 141
SWIDTH 461 0
DWIDTH 6 0
BBX 6 13 0 -3
BITMAP
00
00
00
70
88
88
F8
00
50
A8
A8
50
00
ENDCHAR

STARTCHAR C782=0x30e
ENCODING 142
SWIDTH 461 0
DWIDTH 6 0
BBX 6 13 0 -3
BITMAP
00
00
00
88
A8
A8
F8
00
50
A8
A8
50
00
ENDCHAR

STARTCHAR C783=0x30f
ENCODING 143
SWIDTH 461 0
DWIDTH 6 0
BBX 6 13 0 -3
BITMAP
00
00
00
80
A0
A0
F8
00
50
A8
A8
50
00
ENDCHAR

STARTCHAR C784=0x310
ENCODING 144
SWIDTH 461 0
DWIDTH 6 0
BBX 6 13 0 -3
BITMAP
00
00
00
70
88
A8
70
00
70
A8
A8
68
00
ENDCHAR

STARTCHAR C785=0x311
ENCODING 145
SWIDTH 461 0
DWIDTH 6 0
BBX 6 13 0 -3
BITMAP
00
00
00
00
F8
80
40
00
70
A8
A8
68
00
ENDCHAR

STARTCHAR C786=0x312
ENCODING 146
SWIDTH 461 0
DWIDTH 6 0
BBX 6 13 0 -3
BITMAP
00
00
00
68
98
98
48
00
70
A8
A8
68
00
ENDCHAR

STARTCHAR C787=0x313
ENCODING 147
SWIDTH 461 0
DWIDTH 6 0
BBX 6 13 0 -3
BITMAP
00
00
00
70
A8
A8
88
00
78
A8
A8
68
00
ENDCHAR

STARTCHAR C788=0x314
ENCODING 148
SWIDTH 461 0
DWIDTH 6 0
BBX 6 13 0 -3
BITMAP
00
00
00
10
B8
50
30
00
70
A8
A8
68
00
ENDCHAR

STARTCHAR C789=0x315
ENCODING 149
SWIDTH 461 0
DWIDTH 6 0
BBX 6 13 0 -3
BITMAP
00
00
00
90
A8
A8
E8
00
70
A8
A8
68
00
ENDCHAR

STARTCHAR C790=0x316
ENCODING 150
SWIDTH 461 0
DWIDTH 6 0
BBX 6 13 0 -3
BITMAP
00
00
00
90
A8
A8
70
00
70
A8
A8
68
00
ENDCHAR

STARTCHAR C791=0x317
ENCODING 151
SWIDTH 461 0
DWIDTH 6 0
BBX 6 13 0 -3
BITMAP
00
00
00
C0
A0
90
88
00
70
A8
A8
68
00
ENDCHAR

STARTCHAR C792=0x318
ENCODING 152
SWIDTH 461 0
DWIDTH 6 0
BBX 6 13 0 -3
BITMAP
00
00
00
50
A8
A8
50
00
70
A8
A8
68
00
ENDCHAR

STARTCHAR C793=0x319
ENCODING 153
SWIDTH 461 0
DWIDTH 6 0
BBX 6 13 0 -3
BITMAP
00
00
00
70
A8
A8
68
00
70
A8
A8
68
00
ENDCHAR

STARTCHAR C794=0x31a
ENCODING 154
SWIDTH 461 0
DWIDTH 6 0
BBX 6 13 0 -3
BITMAP
00
00
00
78
A0
A0
78
00
78
A8
A8
68
00
ENDCHAR

STARTCHAR C795=0x31b
ENCODING 155
SWIDTH 461 0
DWIDTH 6 0
BBX 6 13 0 -3
BITMAP
00
00
00
50
A8
A8
F8
00
70
A8
A8
68
00
ENDCHAR

STARTCHAR C796=0x31c
ENCODING 156
SWIDTH 461 0
DWIDTH 6 0
BBX 6 13 0 -3
BITMAP
00
00
00
88
88
88
70
00
70
A8
A8
68
00
ENDCHAR

STARTCHAR C797=0x31d
ENCODING 157
SWIDTH 461 0
DWIDTH 6 0
BBX 6 13 0 -3
BITMAP
00
00
00
70
88
88
F8
00
70
A8
A8
68
00
ENDCHAR

STARTCHAR C798=0x31e
ENCODING 158
SWIDTH 461 0
DWIDTH 6 0
BBX 6 13 0 -3
BITMAP
00
00
00
88
A8
A8
F8
00
70
A8
A8
48
00
ENDCHAR

STARTCHAR C799=0x31f
ENCODING 159
SWIDTH 461 0
DWIDTH 6 0
BBX 6 13 0 -3
BITMAP
00
00
00
80
A0
A0
F8
00
70
A8
A8
48
00
ENDCHAR

STARTCHAR C032=0x020
ENCODING 160
SWIDTH 461 0
DWIDTH 6 0
BBX 6 13 0 -3
BITMAP
00
00
00
00
00
00
00
00
00
00
00
00
00
ENDCHAR

STARTCHAR C572=0x23c
ENCODING 161
SWIDTH 461 0
DWIDTH 6 0
BBX 6 13 0 -3
BITMAP
00
00
20
50
88
88
88
F8
88
88
98
20
18
ENDCHAR

STARTCHAR C247=0x0f7
ENCODING 162
SWIDTH 461 0
DWIDTH 6 0
BBX 6 13 0 -3
BITMAP
88
70
00
00
00
00
00
00
00
00
00
00
00
ENDCHAR

STARTCHAR C229=0x0e5
ENCODING 163
SWIDTH 461 0
DWIDTH 6 0
BBX 6 13 0 -3
BITMAP
00
00
40
50
60
40
C0
40
40
40
78
00
00
ENDCHAR

STARTCHAR C036=0x024
ENCODING 164
SWIDTH 461 0
DWIDTH 6 0
BBX 6 13 0 -3
BITMAP
00
00
00
88
50
70
88
88
70
50
88
00
00
ENDCHAR

STARTCHAR C574=0x23e
ENCODING 165
SWIDTH 461 0
DWIDTH 6 0
BBX 6 13 0 -3
BITMAP
00
00
A0
A0
80
80
80
80
80
80
F8
00
00
ENDCHAR

STARTCHAR C575=0x23f
ENCODING 166
SWIDTH 461 0
DWIDTH 6 0
BBX 6 13 0 -3
BITMAP
10
20
70
88
80
80
70
08
08
88
70
00
00
ENDCHAR

STARTCHAR C236=0x0ec
ENCODING 167
SWIDTH 461 0
DWIDTH 6 0
BBX 6 13 0 -3
BITMAP
00
00
70
88
80
70
88
70
08
88
70
00
00
ENDCHAR

STARTCHAR C249=0x0f9
ENCODING 168
SWIDTH 461 0
DWIDTH 6 0
BBX 6 13 0 -3
BITMAP
50
00
00
00
00
00
00
00
00
00
00
00
00
ENDCHAR

STARTCHAR C578=0x242
ENCODING 169
SWIDTH 461 0
DWIDTH 6 0
BBX 6 13 0 -3
BITMAP
50
20
70
88
80
80
70
08
08
88
70
00
00
ENDCHAR

STARTCHAR C579=0x243
ENCODING 170
SWIDTH 461 0
DWIDTH 6 0
BBX 6 13 0 -3
BITMAP
00
00
70
88
80
80
70
08
08
88
70
10
60
ENDCHAR

STARTCHAR C580=0x244
ENCODING 171
SWIDTH 461 0
DWIDTH 6 0
BBX 6 13 0 -3
BITMAP
50
20
F8
20
20
20
20
20
20
20
20
00
00
ENDCHAR

STARTCHAR C581=0x245
ENCODING 172
SWIDTH 461 0
DWIDTH 6 0
BBX 6 13 0 -3
BITMAP
10
20
F8
08
10
10
20
40
40
80
F8
00
00
ENDCHAR

STARTCHAR C045=0x02d
ENCODING 173
SWIDTH 461 0
DWIDTH 6 0
BBX 6 13 0 -3
BITMAP
00
00
00
00
00
00
F8
00
00
00
00
00
00
ENDCHAR

STARTCHAR C583=0x247
ENCODING 174
SWIDTH 461 0
DWIDTH 6 0
BBX 6 13 0 -3
BITMAP
50
20
F8
08
10
10
20
40
40
80
F8
00
00
ENDCHAR

STARTCHAR C584=0x248
ENCODING 175
SWIDTH 461 0
DWIDTH 6 0
BBX 6 13 0 -3
BITMAP
20
00
F8
08
10
10
20
40
40
80
F8
00
00
ENDCHAR

STARTCHAR C243=0x0f3
ENCODING 176
SWIDTH 461 0
DWIDTH 6 0
BBX 6 13 0 -3
BITMAP
00
00
30
48
30
00
00
00
00
00
00
00
00
ENDCHAR

STARTCHAR C166=0x0a6
ENCODING 177
SWIDTH 461 0
DWIDTH 6 0
BBX 6 13 0 -3
BITMAP
00
00
00
00
00
70
08
78
88
88
78
20
18
ENDCHAR

STARTCHAR C493=0x1ed
ENCODING 178
SWIDTH 461 0
DWIDTH 6 0
BBX 6 13 0 -3
BITMAP
00
00
00
00
00
00
00
00
00
00
00
20
18
ENDCHAR

STARTCHAR C190=0x0be
ENCODING 179
SWIDTH 461 0
DWIDTH 6 0
BBX 6 13 0 -3
BITMAP
00
00
60
28
30
60
20
20
20
20
70
00
00
ENDCHAR

STARTCHAR C248=0x0f8
ENCODING 180
SWIDTH 461 0
DWIDTH 6 0
BBX 6 13 0 -3
BITMAP
10
20
00
00
00
00
00
00
00
00
00
00
00
ENDCHAR

STARTCHAR C191=0x0bf
ENCODING 181
SWIDTH 461 0
DWIDTH 6 0
BBX 6 13 0 -3
BITMAP
00
00
68
28
20
20
20
20
20
20
70
00
00
ENDCHAR

STARTCHAR C207=0x0cf
ENCODING 182
SWIDTH 461 0
DWIDTH 6 0
BBX 6 13 0 -3
BITMAP
00
00
10
20
00
70
88
60
10
88
70
00
00
ENDCHAR

STARTCHAR C254=0x0fe
ENCODING 183
SWIDTH 461 0
DWIDTH 6 0
BBX 6 13 0 -3
BITMAP
50
20
00
00
00
00
00
00
00
00
00
00
00
ENDCHAR

STARTCHAR C551=0x227
ENCODING 184
SWIDTH 461 0
DWIDTH 6 0
BBX 6 13 0 -3
BITMAP
00
00
00
00
00
00
00
00
00
00
20
90
60
ENDCHAR

STARTCHAR C206=0x0ce
ENCODING 185
SWIDTH 461 0
DWIDTH 6 0
BBX 6 13 0 -3
BITMAP
00
00
50
20
00
70
88
60
10
88
70
00
00
ENDCHAR

STARTCHAR C208=0x0d0
ENCODING 186
SWIDTH 461 0
DWIDTH 6 0
BBX 6 13 0 -3
BITMAP
00
00
00
00
00
70
88
60
10
88
70
10
60
ENDCHAR

STARTCHAR C211=0x0d3
ENCODING 187
SWIDTH 461 0
DWIDTH 6 0
BBX 6 13 0 -3
BITMAP
00
00
50
50
40
F0
40
40
40
48
30
00
00
ENDCHAR

STARTCHAR C221=0x0dd
ENCODING 188
SWIDTH 461 0
DWIDTH 6 0
BBX 6 13 0 -3
BITMAP
00
00
10
20
00
F8
10
20
40
80
F8
00
00
ENDCHAR

STARTCHAR C544=0x220
ENCODING 189
SWIDTH 461 0
DWIDTH 6 0
BBX 6 13 0 -3
BITMAP
00
00
48
90
00
00
00
00
00
00
00
00
00
ENDCHAR

STARTCHAR C220=0x0dc
ENCODING 190
SWIDTH 461 0
DWIDTH 6 0
BBX 6 13 0 -3
BITMAP
00
00
50
20
00
F8
10
20
40
80
F8
00
00
ENDCHAR

STARTCHAR C222=0x0de
ENCODING 191
SWIDTH 461 0
DWIDTH 6 0
BBX 6 13 0 -3
BITMAP
00
00
20
00
00
F8
10
20
40
80
F8
00
00
ENDCHAR

STARTCHAR C587=0x24b
ENCODING 192
SWIDTH 461 0
DWIDTH 6 0
BBX 6 13 0 -3
BITMAP
10
20
F0
88
88
88
F0
A0
90
88
88
00
00
ENDCHAR

STARTCHAR C554=0x22a
ENCODING 193
SWIDTH 461 0
DWIDTH 6 0
BBX 6 13 0 -3
BITMAP
10
20
20
50
88
88
88
F8
88
88
88
00
00
ENDCHAR

STARTCHAR C555=0x22b
ENCODING 194
SWIDTH 461 0
DWIDTH 6 0
BBX 6 13 0 -3
BITMAP
20
50
20
50
88
88
88
F8
88
88
88
00
00
ENDCHAR

STARTCHAR C590=0x24e
ENCODING 195
SWIDTH 461 0
DWIDTH 6 0
BBX 6 13 0 -3
BITMAP
88
70
20
50
88
88
88
F8
88
88
88
00
00
ENDCHAR

STARTCHAR C233=0x0e9
ENCODING 196
SWIDTH 461 0
DWIDTH 6 0
BBX 6 13 0 -3
BITMAP
50
00
20
50
88
88
88
F8
88
88
88
00
00
ENDCHAR

STARTCHAR C592=0x250
ENCODING 197
SWIDTH 461 0
DWIDTH 6 0
BBX 6 13 0 -3
BITMAP
40
80
00
80
80
80
80
80
80
80
F8
00
00
ENDCHAR

STARTCHAR C593=0x251
ENCODING 198
SWIDTH 461 0
DWIDTH 6 0
BBX 6 13 0 -3
BITMAP
10
20
50
88
80
80
80
80
80
88
70
00
00
ENDCHAR

STARTCHAR C244=0x0f4
ENCODING 199
SWIDTH 461 0
DWIDTH 6 0
BBX 6 13 0 -3
BITMAP
00
00
70
88
80
80
80
80
80
88
70
10
60
ENDCHAR

STARTCHAR C595=0x253
ENCODING 200
SWIDTH 461 0
DWIDTH 6 0
BBX 6 13 0 -3
BITMAP
50
20
70
88
80
80
80
80
80
88
70
00
00
ENDCHAR

STARTCHAR C223=0x0df
ENCODING 201
SWIDTH 461 0
DWIDTH 6 0
BBX 6 13 0 -3
BITMAP
10
20
F8
80
80
80
F0
80
80
80
F8
00
00
ENDCHAR

STARTCHAR C597=0x255
ENCODING 202
SWIDTH 461 0
DWIDTH 6 0
BBX 6 13 0 -3
BITMAP
00
00
F8
80
80
80
F0
80
80
80
F8
20
18
ENDCHAR

STARTCHAR C559=0x22f
ENCODING 203
SWIDTH 461 0
DWIDTH 6 0
BBX 6 13 0 -3
BITMAP
50
00
F8
80
80
80
F0
80
80
80
F8
00
00
ENDCHAR

STARTCHAR C599=0x257
ENCODING 204
SWIDTH 461 0
DWIDTH 6 0
BBX 6 13 0 -3
BITMAP
50
20
F8
80
80
80
F0
80
80
80
F8
00
00
ENDCHAR

STARTCHAR C561=0x231
ENCODING 205
SWIDTH 461 0
DWIDTH 6 0
BBX 6 13 0 -3
BITMAP
10
20
70
20
20
20
20
20
20
20
70
00
00
ENDCHAR

STARTCHAR C562=0x232
ENCODING 206
SWIDTH 461 0
DWIDTH 6 0
BBX 6 13 0 -3
BITMAP
20
50
70
20
20
20
20
20
20
20
70
00
00
ENDCHAR

STARTCHAR C602=0x25a
ENCODING 207
SWIDTH 461 0
DWIDTH 6 0
BBX 6 13 0 -3
BITMAP
50
20
F0
48
48
48
48
48
48
48
F0
00
00
ENDCHAR

STARTCHAR C226=0x0e2
ENCODING 208
SWIDTH 461 0
DWIDTH 6 0
BBX 6 13 0 -3
BITMAP
00
00
70
48
48
48
E8
48
48
48
70
00
00
ENDCHAR

STARTCHAR C603=0x25b
ENCODING 209
SWIDTH 461 0
DWIDTH 6 0
BBX 6 13 0 -3
BITMAP
10
20
88
88
C8
C8
A8
A8
98
98
88
00
00
ENDCHAR

STARTCHAR C604=0x25c
ENCODING 210
SWIDTH 461 0
DWIDTH 6 0
BBX 6 13 0 -3
BITMAP
50
20
88
88
C8
C8
A8
A8
98
98
88
00
00
ENDCHAR

STARTCHAR C565=0x235
ENCODING 211
SWIDTH 461 0
DWIDTH 6 0
BBX 6 13 0 -3
BITMAP
10
20
70
88
88
88
88
88
88
88
70
00
00
ENDCHAR

STARTCHAR C566=0x236
ENCODING 212
SWIDTH 461 0
DWIDTH 6 0
BBX 6 13 0 -3
BITMAP
20
50
70
88
88
88
88
88
88
88
70
00
00
ENDCHAR

STARTCHAR C607=0x25f
ENCODING 213
SWIDTH 461 0
DWIDTH 6 0
BBX 6 13 0 -3
BITMAP
48
90
70
88
88
88
88
88
88
88
70
00
00
ENDCHAR

STARTCHAR C234=0x0ea
ENCODING 214
SWIDTH 461 0
DWIDTH 6 0
BBX 6 13 0 -3
BITMAP
50
00
70
88
88
88
88
88
88
88
70
00
00
ENDCHAR

STARTCHAR C486=0x1e6
ENCODING 215
SWIDTH 461 0
DWIDTH 6 0
BBX 6 13 0 -3
BITMAP
00
00
00
00
00
00
88
50
20
50
88
00
00
ENDCHAR

STARTCHAR C610=0x262
ENCODING 216
SWIDTH 461 0
DWIDTH 6 0
BBX 6 13 0 -3
BITMAP
50
20
F0
88
88
88
F0
A0
90
88
88
00
00
ENDCHAR

STARTCHAR C611=0x263
ENCODING 217
SWIDTH 461 0
DWIDTH 6 0
BBX 6 13 0 -3
BITMAP
20
50
A8
88
88
88
88
88
88
88
70
00
00
ENDCHAR

STARTCHAR C569=0x239
ENCODING 218
SWIDTH 461 0
DWIDTH 6 0
BBX 6 13 0 -3
BITMAP
10
20
88
88
88
88
88
88
88
88
70
00
00
ENDCHAR

STARTCHAR C613=0x265
ENCODING 219
SWIDTH 461 0
DWIDTH 6 0
BBX 6 13 0 -3
BITMAP
28
50
88
88
88
88
88
88
88
88
70
00
00
ENDCHAR

STARTCHAR C235=0x0eb
ENCODING 220
SWIDTH 461 0
DWIDTH 6 0
BBX 6 13 0 -3
BITMAP
50
00
88
88
88
88
88
88
88
88
70
00
00
ENDCHAR

STARTCHAR C571=0x23b
ENCODING 221
SWIDTH 461 0
DWIDTH 6 0
BBX 6 13 0 -3
BITMAP
10
20
88
88
50
50
20
20
20
20
20
00
00
ENDCHAR

STARTCHAR C616=0x268
ENCODING 222
SWIDTH 461 0
DWIDTH 6 0
BBX 6 13 0 -3
BITMAP
00
00
F8
20
20
20
20
20
20
20
20
10
60
ENDCHAR

STARTCHAR C209=0x0d1
ENCODING 223
SWIDTH 461 0
DWIDTH 6 0
BBX 6 13 0 -3
BITMAP
00
00
70
88
88
88
B0
88
88
88
B0
80
80
ENDCHAR

STARTCHAR C205=0x0cd
ENCODING 224
SWIDTH 461 0
DWIDTH 6 0
BBX 6 13 0 -3
BITMAP
00
00
10
20
00
B0
C8
80
80
80
80
00
00
ENDCHAR

STARTCHAR C162=0x0a2
ENCODING 225
SWIDTH 461 0
DWIDTH 6 0
BBX 6 13 0 -3
BITMAP
00
00
10
20
00
70
08
78
88
88
78
00
00
ENDCHAR

STARTCHAR C163=0x0a3
ENCODING 226
SWIDTH 461 0
DWIDTH 6 0
BBX 6 13 0 -3
BITMAP
00
00
20
50
00
70
08
78
88
88
78
00
00
ENDCHAR

STARTCHAR C168=0x0a8
ENCODING 227
SWIDTH 461 0
DWIDTH 6 0
BBX 6 13 0 -3
BITMAP
00
00
88
70
00
70
08
78
88
88
78
00
00
ENDCHAR

STARTCHAR C164=0x0a4
ENCODING 228
SWIDTH 461 0
DWIDTH 6 0
BBX 6 13 0 -3
BITMAP
00
00
00
50
00
70
08
78
88
88
78
00
00
ENDCHAR

STARTCHAR C189=0x0bd
ENCODING 229
SWIDTH 461 0
DWIDTH 6 0
BBX 6 13 0 -3
BITMAP
10
20
00
20
20
20
20
20
20
20
18
00
00
ENDCHAR

STARTCHAR C172=0x0ac
ENCODING 230
SWIDTH 461 0
DWIDTH 6 0
BBX 6 13 0 -3
BITMAP
00
00
10
20
00
70
88
80
80
88
70
00
00
ENDCHAR

STARTCHAR C170=0x0aa
ENCODING 231
SWIDTH 461 0
DWIDTH 6 0
BBX 6 13 0 -3
BITMAP
00
00
00
00
00
70
88
80
80
88
70
10
60
ENDCHAR

STARTCHAR C171=0x0ab
ENCODING 232
SWIDTH 461 0
DWIDTH 6 0
BBX 6 13 0 -3
BITMAP
00
00
50
20
00
70
88
80
80
88
70
00
00
ENDCHAR

STARTCHAR C177=0x0b1
ENCODING 233
SWIDTH 461 0
DWIDTH 6 0
BBX 6 13 0 -3
BITMAP
00
00
10
20
00
70
88
F8
80
88
70
00
00
ENDCHAR

STARTCHAR C181=0x0b5
ENCODING 234
SWIDTH 461 0
DWIDTH 6 0
BBX 6 13 0 -3
BITMAP
00
00
00
00
00
70
88
F8
80
88
70
40
30
ENDCHAR

STARTCHAR C179=0x0b3
ENCODING 235
SWIDTH 461 0
DWIDTH 6 0
BBX 6 13 0 -3
BITMAP
00
00
00
50
00
70
88
F8
80
88
70
00
00
ENDCHAR

STARTCHAR C180=0x0b4
ENCODING 236
SWIDTH 461 0
DWIDTH 6 0
BBX 6 13 0 -3
BITMAP
00
00
50
20
00
70
88
F8
80
88
70
00
00
ENDCHAR

STARTCHAR C383=0x17f
ENCODING 237
SWIDTH 461 0
DWIDTH 6 0
BBX 6 13 0 -3
BITMAP
00
00
10
20
00
20
20
20
20
20
70
00
00
ENDCHAR

STARTCHAR C184=0x0b8
ENCODING 238
SWIDTH 461 0
DWIDTH 6 0
BBX 6 13 0 -3
BITMAP
00
00
20
50
00
20
20
20
20
20
70
00
00
ENDCHAR

STARTCHAR C175=0x0af
ENCODING 239
SWIDTH 461 0
DWIDTH 6 0
BBX 6 13 0 -3
BITMAP
00
00
14
14
10
70
90
90
90
90
70
00
00
ENDCHAR

STARTCHAR C174=0x0ae
ENCODING 240
SWIDTH 461 0
DWIDTH 6 0
BBX 6 13 0 -3
BITMAP
00
00
10
78
10
10
70
90
90
90
70
00
00
ENDCHAR

STARTCHAR C193=0x0c1
ENCODING 241
SWIDTH 461 0
DWIDTH 6 0
BBX 6 13 0 -3
BITMAP
00
00
10
20
00
B0
C8
88
88
88
88
00
00
ENDCHAR

STARTCHAR C192=0x0c0
ENCODING 242
SWIDTH 461 0
DWIDTH 6 0
BBX 6 13 0 -3
BITMAP
00
00
50
20
00
B0
C8
88
88
88
88
00
00
ENDCHAR

STARTCHAR C196=0x0c4
ENCODING 243
SWIDTH 461 0
DWIDTH 6 0
BBX 6 13 0 -3
BITMAP
00
00
10
20
00
70
88
88
88
88
70
00
00
ENDCHAR

STARTCHAR C197=0x0c5
ENCODING 244
SWIDTH 461 0
DWIDTH 6 0
BBX 6 13 0 -3
BITMAP
00
00
20
50
00
70
88
88
88
88
70
00
00
ENDCHAR

STARTCHAR C201=0x0c9
ENCODING 245
SWIDTH 461 0
DWIDTH 6 0
BBX 6 13 0 -3
BITMAP
00
00
28
50
00
70
88
88
88
88
70
00
00
ENDCHAR

STARTCHAR C198=0x0c6
ENCODING 246
SWIDTH 461 0
DWIDTH 6 0
BBX 6 13 0 -3
BITMAP
00
00
00
50
00
70
88
88
88
88
70
00
00
ENDCHAR

STARTCHAR C487=0x1e7
ENCODING 247
SWIDTH 461 0
DWIDTH 6 0
BBX 6 13 0 -3
BITMAP
00
00
00
00
00
00
20
00
F8
00
20
00
00
ENDCHAR

STARTCHAR C204=0x0cc
ENCODING 248
SWIDTH 461 0
DWIDTH 6 0
BBX 6 13 0 -3
BITMAP
00
00
50
20
00
B0
C8
80
80
80
80
00
00
ENDCHAR

STARTCHAR C216=0x0d8
ENCODING 249
SWIDTH 461 0
DWIDTH 6 0
BBX 6 13 0 -3
BITMAP
00
00
20
50
20
88
88
88
88
98
68
00
00
ENDCHAR

STARTCHAR C213=0x0d5
ENCODING 250
SWIDTH 461 0
DWIDTH 6 0
BBX 6 13 0 -3
BITMAP
00
00
10
20
00
88
88
88
88
98
68
00
00
ENDCHAR

STARTCHAR C217=0x0d9
ENCODING 251
SWIDTH 461 0
DWIDTH 6 0
BBX 6 13 0 -3
BITMAP
00
00
28
50
00
88
88
88
88
98
68
00
00
ENDCHAR

STARTCHAR C215=0x0d7
ENCODING 252
SWIDTH 461 0
DWIDTH 6 0
BBX 6 13 0 -3
BITMAP
00
00
00
50
00
88
88
88
88
98
68
00
00
ENDCHAR

STARTCHAR C218=0x0da
ENCODING 253
SWIDTH 461 0
DWIDTH 6 0
BBX 6 13 0 -3
BITMAP
00
00
10
20
00
88
88
88
98
68
08
88
70
ENDCHAR

STARTCHAR C210=0x0d2
ENCODING 254
SWIDTH 461 0
DWIDTH 6 0
BBX 6 13 0 -3
BITMAP
00
00
00
40
40
F0
40
40
40
40
30
20
C0
ENDCHAR

STARTCHAR C492=0x1ec
ENCODING 255
SWIDTH 461 0
DWIDTH 6 0
BBX 6 13 0 -3
BITMAP
00
00
20
00
00
00
00
00
00
00
00
00
00
ENDCHAR
ENDFONT
